Simulation
nRows=37
nColumns=15
endheader
time  TH_x TH_y TH_z SC_y  SC_z  SC_x  AC_y  AC_z  AC_x  GH_y  GH_z  GH_yy  EL_x  PS_y
0.0  0.000000  0.000000  0.000000  -33.17551671276536  5.24606809853432  18.164066489200916  67.79981203700419  2.9341242015889564  -3.62580428609046  44.73617446696666  48.04763886120626  -55.04973806065879  24.13252642561116  0.000000
0.023  0.000000  0.000000  0.000000  -33.01502450427982  6.060979650895817  18.95693868014263  68.14815078706604  3.896278126643954  -2.922208122307281  44.69789556982285  49.80763886398833  -54.99825768298353  24.683812798032417  0.000000
0.046  0.000000  0.000000  0.000000  -33.22139684618813  6.851632930390106  19.374975272272003  68.3632930833373  4.33333582014715  -2.119028410432447  44.83223513762013  51.25246718552146  -55.039007558472214  25.16297832965441  0.000000
0.069  0.000000  0.000000  0.000000  -33.68740151587258  7.402062767795144  19.658981343364896  68.55878439010567  4.317810143536009  -1.4355180463345476  45.08679600649206  52.37423422496126  -55.25415545832203  25.526394409588754  0.000000
0.092  0.000000  0.000000  0.000000  -34.166218273614035  7.782786844076303  19.902729870672427  68.73701106835438  4.054550541047396  -0.9793693112666754  45.374081506710134  53.141347277323376  -55.57984617429985  25.776945692098717  0.000000
0.11499999999999999  0.000000  0.000000  0.000000  -34.568446326889145  8.00910150114294  20.077465543729417  68.86423905425805  3.7240605605443498  -0.6544547030935434  45.65683577435482  53.57223099095942  -55.95900465600994  25.918240227026793  0.000000
0.138  0.000000  0.000000  0.000000  -34.892631183713455  8.128661901200656  20.15067576656693  68.98166040374122  3.412668283101135  -0.4351826009400954  45.931627488456556  53.77317620007647  -56.4499423147845  25.985437028134594  0.000000
0.161  0.000000  0.000000  0.000000  -35.17292001268553  8.185117973772558  20.142893401581485  69.07729896760826  3.14287475621144  -0.2559695599438559  46.234173729643906  53.786873238642  -57.01619796886697  26.00143490449378  0.000000
0.184  0.000000  0.000000  0.000000  -35.39410094641102  8.204605536728247  20.06547248572113  69.14588699907245  2.905802647893852  -0.1129077100307264  46.55688189428985  53.68500565003933  -57.676877237451976  25.984771905322134  0.000000
0.207  0.000000  0.000000  0.000000  -35.5696126493209  8.204137884406595  19.944591811807072  69.19293274194013  2.710306266454557  0.0007766431950711641  46.91039540864042  53.49730122233358  -58.39557194995333  25.938473110661224  0.000000
0.22999999999999998  0.000000  0.000000  0.000000  -35.69288859580526  8.190656778457756  19.78479062452618  69.20794888909577  2.542004302364259  0.09556570668510439  47.289853370356695  53.258069432584776  -59.16996018842221  25.882114556430803  0.000000
0.253  0.000000  0.000000  0.000000  -35.77409315581322  8.169338798485196  19.602713101687943  69.20821554971073  2.403638357175959  0.16716344715694573  47.69561277393644  52.98675011115181  -59.98506857891965  25.812357088409822  0.000000
0.276  0.000000  0.000000  0.000000  -35.81419893407213  8.143976760262074  19.40257851611549  69.18707820194203  2.2836856928032123  0.2289706403555117  48.126340026697186  52.69315568482203  -60.82663639950014  25.74073875456057  0.000000
0.299  0.000000  0.000000  0.000000  -35.82046374997189  8.1153929136184  19.193325865895048  69.15904922606843  2.1797249606468307  0.27721310872239596  48.579494202245726  52.38813538242426  -61.68842875938002  25.665745718835048  0.000000
0.322  0.000000  0.000000  0.000000  -35.795754623356125  8.086129645642865  18.9774362882851  69.1216482440743  2.084129583908294  0.3224323280653687  49.054435794854236  52.07212593576287  -62.55529195297764  25.59449222152139  0.000000
0.345  0.000000  0.000000  0.000000  -35.74565092669325  8.055771454604661  18.76008866227286  69.08538190231276  1.993235780539355  0.36327879873512814  49.548339384806866  51.750091868261336  -63.42336559397397  25.527303626062633  0.000000
0.368  0.000000  0.000000  0.000000  -35.67270546180556  8.02514490861217  18.543007737981014  69.05031797615587  1.902153368738121  0.40630725541709833  50.06003390956956  51.42029721308609  -64.28006506387015  25.468405436988984  0.000000
0.391  0.000000  0.000000  0.000000  -35.58188764971914  7.993818593990546  18.329967122874383  69.02373427038216  1.8071893262721006  0.45156796699475177  50.58687486340926  51.085162822852276  -65.1221628235904  25.419101476347667  0.000000
0.414  0.000000  0.000000  0.000000  -35.47526888550452  7.961715385233106  18.122259351121254  69.00627331787967  1.7049666778253334  0.502910827733626  51.12685170629587  50.7436098065596  -65.93961148853705  25.38179956733295  0.000000
0.437  0.000000  0.000000  0.000000  -35.35725981144568  7.928539182313042  17.92285601704854  69.00315352711583  1.592473596133786  0.5606943311732002  51.67663039755736  50.397749935302194  -66.72905159087483  25.35776406376945  0.000000
0.45999999999999996  0.000000  0.000000  0.000000  -35.229517384066334  7.894136658892748  17.732420540531223  69.01446817417141  1.4672065731575668  0.6276453824870026  52.233116153249235  50.04783983440868  -67.4818680806824  25.348257789801004  0.000000
0.483  0.000000  0.000000  0.000000  -35.096625683796724  7.858107653277726  17.55254450079131  69.04423987098616  1.326882681855333  0.7041713168664091  52.79136309236955  49.69736622620541  -68.19376252689379  25.354039185171217  0.000000
0.506  0.000000  0.000000  0.000000  -34.95985094550927  7.820516662807239  17.383748608860014  69.09118057327424  1.1690804275914115  0.7921303390176578  53.346885640093625  49.34798798543799  -68.85614063204243  25.375320991361463  0.000000
0.529  0.000000  0.000000  0.000000  -34.82140518229089  7.7841910990356435  17.22853370814025  69.15639042423904  0.9930436316774435  0.8917766140496448  53.896649928924134  49.00150561099083  -69.46604431601352  25.41251078597653  0.000000
0.552  0.000000  0.000000  0.000000  -34.68198668896109  7.746959356890885  17.08496153291491  69.23923609485627  0.800900838096412  1.0040818001347762  54.439853076001555  48.659016625343554  -70.02484750852653  25.465643534343908  0.000000
0.575  0.000000  0.000000  0.000000  -34.54402999692047  7.708004079494277  16.95312047521154  69.34261489956504  0.5962121596188155  1.1287017970389184  54.976380256248426  48.320606574766686  -70.53679835360643  25.535309678950103  0.000000
0.598  0.000000  0.000000  0.000000  -34.40561933812494  7.668244490401626  16.833236265207827  69.46389834893272  0.3811072373576498  1.2652565412791512  55.50744713055073  47.9845650480203  -71.00277685537498  25.621485765679786  0.000000
0.621  0.000000  0.000000  0.000000  -34.2678292430349  7.6279615812889325  16.726112557962896  69.60325772947128  0.1576843428506167  1.4126150223722582  56.03282587614361  47.65117603130014  -71.42583944482952  25.723508285501236  0.000000
0.644  0.000000  0.000000  0.000000  -34.12960414213109  7.587019084634114  16.630583667154287  69.75782746023548  -0.0722651949024017  1.5698356729970906  56.55215550616269  47.3205718674644  -71.8074262675851  25.840552628332055  0.000000
0.667  0.000000  0.000000  0.000000  -33.992903107141004  7.545801049071024  16.546773515882204  69.9273238444597  -0.3065443510607758  1.7356926033826288  57.064304048449436  46.993613286906054  -72.14991117779961  25.971687864081844  0.000000
0.69  0.000000  0.000000  0.000000  -33.85737501615234  7.504049142195765  16.473146675048085  70.10844168777653  -0.543248761764699  1.909005226287643  57.56798551929373  46.67094655473075  -72.45485562185847  26.115616464375606  0.000000
0.713  0.000000  0.000000  0.000000  -33.72539267578157  7.462294408719255  16.408663748506417  70.30074245013633  -0.779133032243006  2.088903071376823  58.06078208284648  46.35348513026267  -72.72446647967928  26.27112627831149  0.000000
0.736  0.000000  0.000000  0.000000  -33.59635303448548  7.420539687944224  16.351080139233186  70.50087885481597  -1.011817716912087  2.274934059795069  58.54125196585523  46.04126743749837  -72.96023413571528  26.436750776208633  0.000000
0.759  0.000000  0.000000  0.000000  -33.472050467412174  7.379234274849589  16.30129288860064  70.70888821113438  -1.2412713939843094  2.4653646424133915  59.0089744775122  45.736007358954424  -73.16500687701298  26.610565725951375  0.000000
0.782  0.000000  0.000000  0.000000  -33.351235625980074  7.338322107973483  16.259131340630677  70.92137085291618  -1.4680689723070404  2.658685119667773  59.46483007626606  45.43824130274296  -73.34191100998133  26.791141400379914  0.000000
0.8049999999999999  0.000000  0.000000  0.000000  -33.23519450113287  7.298548456408711  16.22466808733635  71.13792032877973  -1.6913159655252148  2.8538670304517835  59.90823114816201  45.14891718390122  -73.49417370151433  26.977008503054936  0.000000
0.828  0.000000  0.000000  0.000000  -33.12310888515093  7.260034848189948  16.196807841376764  71.35548260578798  -1.91020560368036  3.049810725977316  60.33892538633319  44.86847501648676  -73.62433868206968  27.166316003514275  0.000000
